<svg width="271" height="59" viewBox="0 0 271 59" fill="none" xmlns="http://www.w3.org/2000/svg">
<path d="M1.91944 48.1583L27.6223 3.81688C27.6223 3.81688 31.6745 -4.01936 35.7396 2.76442C39.109 8.38634 42.3534 13.2862 42.3534 13.2862L19.8573 51.061C19.8573 51.061 14.1894 62.6857 4.11581 57.4997C2.07989 56.4495 -2.63487 54.7137 1.91944 48.1583Z" fill="url(#paint0_linear_1_88)"/>
<path d="M32.1822 44.5151C32.1822 44.5151 49.5248 36.1711 57.5344 40.6065L46.0106 20.5654L32.1822 44.5151Z" fill="url(#paint1_linear_1_88)"/>
<path d="M32.3814 45.0155C32.3814 45.0155 49.3021 36.5279 58.036 41.7083C58.036 41.7083 62.1662 47.9625 63.3477 50.0242C64.7951 52.555 62.4461 57.1788 59.7392 57.0582C57.034 56.9404 32.3814 45.0155 32.3814 45.0155Z" fill="url(#paint2_linear_1_88)"/>
<path d="M74.4613 16.1812C74.1253 16.1812 73.8414 16.0645 73.608 15.8312C73.3747 15.5983 73.258 15.3139 73.258 14.9779C73.258 14.6424 73.3747 14.3585 73.608 14.1245C73.8414 13.8912 74.1253 13.7745 74.4613 13.7745H85.6401C88.3672 13.7745 90.6937 14.7372 92.6186 16.662C94.558 18.6014 95.528 20.9353 95.528 23.6629C95.528 26.3906 94.558 28.7165 92.6186 30.6408C90.6932 32.5802 88.3666 33.5508 85.6401 33.5508H75.6642V43.8549C75.6642 44.1904 75.5475 44.4743 75.3141 44.7082C75.0807 44.9422 74.7963 45.0589 74.4608 45.0589C74.1247 45.0589 73.8409 44.9416 73.6075 44.7082C73.3741 44.476 73.2574 44.1904 73.2574 43.8549V32.348C73.2574 32.0119 73.3741 31.7286 73.6075 31.4947C73.8409 31.2613 74.1247 31.1446 74.4608 31.1446H85.6396C87.6962 31.1446 89.4533 30.4153 90.912 28.9572C92.3846 27.4845 93.1212 25.7196 93.1212 23.6629C93.1212 21.5928 92.3846 19.8273 90.912 18.3681C89.4533 16.91 87.6962 16.1807 85.6396 16.1807L74.4613 16.1812Z" fill="#222322"/>
<path d="M101.107 45.0587C100.771 45.0587 100.487 44.9426 100.254 44.7092C100.021 44.4758 99.9039 44.1908 99.9039 43.8559V32.3478C99.9039 32.0118 100.021 31.7284 100.254 31.4945C100.487 31.2611 100.771 31.1444 101.107 31.1444H112.22C114.277 31.1444 116.041 30.4151 117.515 28.957C118.973 27.4844 119.702 25.7194 119.702 23.6628C119.702 21.5926 118.973 19.8271 117.515 18.3679C116.041 16.9098 114.277 16.1805 112.22 16.1805H101.107C100.771 16.1805 100.487 16.0638 100.254 15.8304C100.021 15.5976 99.9039 15.3132 99.9039 14.9771C99.9039 14.6416 100.021 14.3578 100.254 14.1238C100.487 13.8904 100.771 13.7738 101.107 13.7738H112.22C114.947 13.7738 117.274 14.7365 119.199 16.6613C121.139 18.6007 122.109 20.9351 122.109 23.6622C122.109 26.1851 121.263 28.3876 119.571 30.2681C117.879 32.1352 115.794 33.2067 113.314 33.4839L122.131 43.0435C122.349 43.2769 122.451 43.5625 122.437 43.8968C122.422 44.2329 122.298 44.51 122.065 44.7277C121.832 44.9465 121.555 45.0559 121.234 45.0559C120.884 45.0559 120.592 44.9246 120.358 44.6626L110.098 33.5484H102.31V43.8531C102.31 44.1886 102.193 44.4724 101.96 44.7064C101.727 44.9426 101.442 45.0587 101.107 45.0587Z" fill="#222322"/>
<path d="M142.476 13.7749C146.792 13.7749 150.483 15.2992 153.545 18.3466C156.594 21.4092 158.117 25.1001 158.117 29.416C158.117 33.7335 156.593 37.4222 153.545 40.4848C150.483 43.5344 146.792 45.057 142.476 45.057C138.159 45.057 134.469 43.5333 131.406 40.4848C128.358 37.4222 126.834 33.7335 126.834 29.416C126.834 25.1001 128.358 21.4097 131.406 18.3466C134.469 15.2992 138.159 13.7749 142.476 13.7749ZM142.476 42.652C146.122 42.652 149.243 41.3611 151.839 38.7798C154.421 36.184 155.711 33.0637 155.711 29.4171C155.711 25.7716 154.42 22.6496 151.839 20.0543C149.242 17.4725 146.122 16.1828 142.476 16.1828C138.83 16.1828 135.708 17.4737 133.113 20.0543C130.531 22.6512 129.241 25.7716 129.241 29.4171C129.241 33.0637 130.532 36.1846 133.113 38.7798C135.709 41.3616 138.83 42.652 142.476 42.652Z" fill="#222322"/>
<path d="M178.135 45.0587C173.819 45.0587 170.129 43.535 167.066 40.4864C164.018 37.4239 162.495 33.7352 162.495 29.4176C162.495 25.1018 164.018 21.4114 167.066 18.3483C170.129 15.3003 173.819 13.7766 178.135 13.7766C182.452 13.7766 186.142 15.3008 189.204 18.3483C189.437 18.5822 189.554 18.8666 189.554 19.2016C189.554 19.5365 189.437 19.8209 189.204 20.0549C188.971 20.2883 188.687 20.4055 188.351 20.4055C188.016 20.4055 187.732 20.2883 187.498 20.0549C184.917 17.4731 181.796 16.1833 178.135 16.1833C174.475 16.1833 171.353 17.4742 168.773 20.0549C166.192 22.6367 164.901 25.7581 164.901 29.4176C164.901 33.0788 166.192 36.2003 168.773 38.7804C171.354 41.3622 174.475 42.6525 178.135 42.6525C181.796 42.6525 184.918 41.3616 187.498 38.7804C187.731 38.5476 188.016 38.4309 188.351 38.4309C188.687 38.4309 188.97 38.5476 189.204 38.7804C189.437 39.0138 189.554 39.2988 189.554 39.6337C189.554 39.9546 189.437 40.239 189.204 40.487C186.142 43.535 182.452 45.0587 178.135 45.0587Z" fill="#222322"/>
<path d="M217.404 33.3318C217.404 36.5554 216.252 39.3195 213.948 41.6231C211.658 43.9131 208.894 45.0581 205.657 45.0581C202.434 45.0581 199.67 43.9131 197.366 41.6231C195.076 39.3195 193.931 36.5554 193.931 33.3318V14.9783C193.931 14.6428 194.048 14.3589 194.282 14.125C194.514 13.8916 194.799 13.7749 195.135 13.7749C195.47 13.7749 195.754 13.8916 195.988 14.125C196.222 14.3583 196.338 14.6428 196.338 14.9783V33.333C196.338 35.9002 197.249 38.0948 199.073 39.917C200.896 41.7403 203.091 42.652 205.658 42.652C208.24 42.652 210.44 41.7403 212.263 39.917C214.086 38.0948 214.998 35.9002 214.998 33.333V14.9783C214.998 14.6428 215.114 14.3589 215.348 14.125C215.581 13.891 215.867 13.7749 216.201 13.7749C216.522 13.7749 216.806 13.8916 217.054 14.125C217.288 14.3583 217.404 14.6428 217.404 14.9783V33.3318Z" fill="#222322"/>
<path d="M222.982 45.0587C222.646 45.0587 222.362 44.9426 222.129 44.7092C221.896 44.4758 221.779 44.1908 221.779 43.8559V32.3478C221.779 32.0118 221.896 31.7284 222.129 31.4945C222.361 31.2611 222.646 31.1444 222.982 31.1444H234.096C236.153 31.1444 237.918 30.4151 239.39 28.957C240.849 27.4844 241.578 25.7194 241.578 23.6628C241.578 21.5926 240.848 19.8271 239.39 18.3679C237.918 16.9098 236.153 16.1805 234.096 16.1805H222.982C222.646 16.1805 222.362 16.0638 222.129 15.8304C221.896 15.5976 221.779 15.3132 221.779 14.9771C221.779 14.6416 221.896 14.3578 222.129 14.1238C222.361 13.8904 222.646 13.7738 222.982 13.7738H234.096C236.823 13.7738 239.15 14.7365 241.075 16.6613C243.014 18.6007 243.984 20.9351 243.984 23.6622C243.984 26.1851 243.138 28.3876 241.447 30.2681C239.755 32.1352 237.67 33.2067 235.191 33.4839L244.007 43.0435C244.227 43.2769 244.328 43.5625 244.314 43.8968C244.299 44.2329 244.175 44.51 243.942 44.7277C243.709 44.9465 243.431 45.0559 243.112 45.0559C242.761 45.0559 242.469 44.9246 242.236 44.6626L231.976 33.5484H224.186V43.8531C224.186 44.1886 224.07 44.4724 223.837 44.7064C223.602 44.9426 223.317 45.0587 222.982 45.0587Z" fill="#222322"/>
<path d="M269.777 13.7749C270.097 13.7749 270.382 13.8916 270.63 14.125C270.863 14.3583 270.981 14.6428 270.981 14.9783C270.981 15.3143 270.863 15.5982 270.63 15.8316C270.383 16.0649 270.098 16.1816 269.777 16.1816H249.913C249.577 16.1816 249.293 16.0649 249.06 15.8316C248.826 15.5987 248.71 15.3143 248.71 14.9783C248.71 14.6428 248.826 14.3589 249.06 14.125C249.293 13.891 249.578 13.7749 249.913 13.7749H269.777ZM269.777 28.2126C270.097 28.2126 270.382 28.3298 270.63 28.5632C270.863 28.7966 270.981 29.081 270.981 29.4165C270.981 29.7526 270.863 30.0359 270.63 30.2698C270.383 30.5032 270.098 30.6205 269.777 30.6205H249.913C249.577 30.6205 249.293 30.5032 249.06 30.2698C248.826 30.0364 248.71 29.7526 248.71 29.4165C248.71 29.081 248.826 28.7972 249.06 28.5632C249.293 28.3293 249.578 28.2126 249.913 28.2126H269.777ZM270.981 43.8553C270.981 44.1908 270.863 44.4752 270.63 44.7086C270.383 44.942 270.098 45.0581 269.777 45.0581H249.913C249.577 45.0581 249.293 44.942 249.06 44.7086C248.826 44.4752 248.71 44.1903 248.71 43.8553C248.71 43.5204 248.826 43.236 249.06 43.002C249.293 42.7698 249.578 42.6525 249.913 42.6525H269.777C270.097 42.6525 270.382 42.7698 270.63 43.002C270.863 43.2365 270.981 43.5198 270.981 43.8553Z" fill="#222322"/>
<defs>
<linearGradient id="paint0_linear_1_88" x1="0.000267505" y1="29.4158" x2="42.353" y2="29.4158" gradientUnits="userSpaceOnUse">
<stop offset="0.1379" stop-color="#29AAE1"/>
<stop offset="0.3248" stop-color="#56B1B7"/>
<stop offset="0.5049" stop-color="#6CB792"/>
<stop offset="0.6674" stop-color="#7BBC73"/>
<stop offset="0.8093" stop-color="#85C058"/>
<stop offset="0.925" stop-color="#8AC447"/>
<stop offset="1" stop-color="#8CC542"/>
</linearGradient>
<linearGradient id="paint1_linear_1_88" x1="32.1824" y1="32.5403" x2="57.5343" y2="32.5403" gradientUnits="userSpaceOnUse">
<stop offset="0.1653" stop-color="#8CC542"/>
<stop offset="0.1916" stop-color="#87C251"/>
<stop offset="0.2677" stop-color="#78BB79"/>
<stop offset="0.3467" stop-color="#6AB696"/>
<stop offset="0.4271" stop-color="#5CB3AD"/>
<stop offset="0.5093" stop-color="#4FAFC0"/>
<stop offset="0.5938" stop-color="#42ADCD"/>
<stop offset="0.6815" stop-color="#37ABD7"/>
<stop offset="0.7745" stop-color="#2EAADE"/>
<stop offset="0.8817" stop-color="#29AAE1"/>
</linearGradient>
<linearGradient id="paint2_linear_1_88" x1="32.3813" y1="48.5472" x2="63.7893" y2="48.5472" gradientUnits="userSpaceOnUse">
<stop offset="0.0141" stop-color="#8CC542"/>
<stop offset="0.9347" stop-color="#29AAE1"/>
</linearGradient>
</defs>
</svg>
