<svg width="24" height="24" viewBox="0 0 24 24" fill="none" xmlns="http://www.w3.org/2000/svg">
<path d="M19.2049 9.85031C20.3167 11.0087 20.9869 11.9809 20.9998 11.9997C20.9998 11.9997 16.9089 17.9997 11.9998 17.9997C11.6892 17.9997 11.3879 17.9854 11.0955 17.9597L19.2049 9.85031Z" fill="#979797"/>
<path d="M12 6C12.866 6 13.7058 6.18854 14.5029 6.49609L12 9C10.3431 9 9 10.3431 9 12L5.52734 15.4717C3.75112 13.8319 3 12 3 12C3 12 5.45455 6 12 6Z" fill="#979797"/>
<rect opacity="0.3" x="5.10001" y="18.435" width="19" height="2" transform="rotate(-45 5.10001 18.435)" fill="#979797"/>
</svg>
