<svg width="18" height="19" viewBox="0 0 18 19" fill="none" xmlns="http://www.w3.org/2000/svg">
<path d="M0.470631 17.7174C0.314647 18.0098 0.425205 18.3732 0.717567 18.5292C1.00993 18.6852 1.37339 18.5746 1.52937 18.2823L0.470631 17.7174ZM16.4706 18.2824C16.6266 18.5748 16.9901 18.6854 17.2824 18.5294C17.5748 18.3734 17.6854 18.0099 17.5294 17.7176L16.4706 18.2824ZM1 17.9998L1.52937 18.2823C2.29311 16.8508 3.38808 15.6681 4.69959 14.8484L4.3816 14.3396L4.06361 13.8308C2.56661 14.7664 1.32906 16.1084 0.470631 17.7174L1 17.9998ZM4.3816 14.3396L4.69959 14.8484C6.01065 14.029 7.49355 13.6 8.99995 13.6L8.99995 13L8.99996 12.4C7.26364 12.4 5.56108 12.8949 4.06361 13.8308L4.3816 14.3396ZM8.99995 13L8.99995 13.6C10.5064 13.6 11.9894 14.0291 13.3005 14.8485L13.6185 14.3397L13.9365 13.8309C12.439 12.895 10.7363 12.4 8.99996 12.4L8.99995 13ZM13.6185 14.3397L13.3005 14.8485C14.612 15.6682 15.7069 16.8509 16.4706 18.2824L17 18L17.5294 17.7176C16.671 16.1086 15.4335 14.7665 13.9365 13.8309L13.6185 14.3397Z" fill="#807A7A"/>
<path d="M8.5 12C11.5376 12 14 9.53757 14 6.5C14 3.46243 11.5376 1 8.5 1C5.46243 1 3 3.46243 3 6.5C3 9.53757 5.46243 12 8.5 12Z" stroke="#807A7A" stroke-width="1.2" stroke-linecap="round"/>
</svg>
